<?xml version="1.0" encoding="utf-8"?>
<!-- Generator: Adobe Illustrator 26.1.0, SVG Export Plug-In . SVG Version: 6.00 Build 0)  -->
<svg version="1.1" id="Layer_1" xmlns="http://www.w3.org/2000/svg" xmlns:xlink="http://www.w3.org/1999/xlink" x="0px" y="0px"
	 viewBox="0 0 66 78" style="enable-background:new 0 0 66 78;" xml:space="preserve">
<style type="text/css">
	.st0{clip-path:url(#SVGID_00000140711482842936109900000011169518273898807712_);}
	.st1{opacity:5.000000e-02;}
	.st2{clip-path:url(#SVGID_00000135667290197633342860000010416922929414616761_);}
	.st3{clip-path:url(#SVGID_00000067233997514496528150000009357614584118759096_);}
	.st4{fill:#2C6E49;}
	.st5{fill:none;stroke:#4D4D4D;stroke-width:0.25;stroke-miterlimit:10;}
	.st6{fill:#BC4749;}
	.st7{fill:none;}
	.st8{fill:#FEFEE3;}
</style>
<g id="Logo" transform="translate(-1576 -49)">
	<g id="Group_8832" transform="translate(1576.268 49.238)">
		<g>
			<defs>
				<rect id="SVGID_1_" x="-0.3" y="-0.2" width="66" height="78"/>
			</defs>
			<clipPath id="SVGID_00000101809736697016639840000016881616284693758635_">
				<use xlink:href="#SVGID_1_"  style="overflow:visible;"/>
			</clipPath>
			
				<g id="Group_8831" transform="translate(0)" style="clip-path:url(#SVGID_00000101809736697016639840000016881616284693758635_);">
				<g id="Group_8830" class="st1">
					<g id="Group_8829">
						<g>
							<defs>
								<rect id="SVGID_00000148660953311522947360000013539049722266825383_" x="-0.3" y="-0.2" width="66" height="78"/>
							</defs>
							<clipPath id="SVGID_00000118385998531711310920000005633583569630688170_">
								<use xlink:href="#SVGID_00000148660953311522947360000013539049722266825383_"  style="overflow:visible;"/>
							</clipPath>
							<g id="Group_8828" style="clip-path:url(#SVGID_00000118385998531711310920000005633583569630688170_);">
								<g id="Group_8827">
									<g>
										<defs>
											<rect id="SVGID_00000119116543649136588250000000606569873434043054_" x="-0.3" y="-0.2" width="66" height="78"/>
										</defs>
										<clipPath id="SVGID_00000140016794251732709330000014296680480575106204_">
											<use xlink:href="#SVGID_00000119116543649136588250000000606569873434043054_"  style="overflow:visible;"/>
										</clipPath>
										<g id="Group_8826" style="clip-path:url(#SVGID_00000140016794251732709330000014296680480575106204_);">
											
												<image style="overflow:visible;enable-background:new    ;" width="462" height="554" id="Rectangle_3094" xlink:href="8BC0439.png"  transform="matrix(0.1407 0 0 0.1407 -0.268 -0.2099)">
											</image>
										</g>
									</g>
								</g>
							</g>
						</g>
					</g>
				</g>
			</g>
		</g>
	</g>
	<path id="Path_13502" class="st4" d="M1626.3,50.9v8.3H1587v17.8h4.8V64h21.4v8.3h-13.1v13.1h-21.4V50.9H1626.3z"/>
	<path id="Path_13503" class="st5" d="M1626.3,50.9v8.3H1587v17.8h4.8V64h21.4v8.3h-13.1v13.1h-21.4V50.9H1626.3z"/>
	<path id="Path_13504" class="st4" d="M1617.9,64v21.4h13.1v17.8h-4.8V90.2h-8.3v13.1h-17.8V90.2h-21.4v21.4h13.1v4.8h-13.1v8.3
		h21.4v-13.1h39.2V64H1617.9z M1587,98.5h4.8v4.8h-4.8V98.5z M1631,77.1h-4.8v-4.8h4.8V77.1z"/>
	<path id="Path_13505" class="st5" d="M1617.9,64v21.4h13.1v17.8h-4.8V90.2h-8.3v13.1h-17.8V90.2h-21.4v21.4h13.1v4.8h-13.1v8.3
		h21.4v-13.1h39.2V64H1617.9z M1587,98.5h4.8v4.8h-4.8V98.5z M1631,77.1h-4.8v-4.8h4.8V77.1z"/>
	<rect id="Rectangle_3098" x="1631" y="50.9" class="st6" width="8.3" height="8.3"/>
	<rect id="Rectangle_3099" x="1631" y="50.9" class="st5" width="8.3" height="8.3"/>
	<rect id="Rectangle_3100" x="1604.9" y="77.1" class="st6" width="8.3" height="8.3"/>
	<rect id="Rectangle_3101" x="1604.9" y="77.1" class="st5" width="8.3" height="8.3"/>
	<rect id="Rectangle_3102" x="1604.9" y="90.2" class="st6" width="8.3" height="8.3"/>
	<rect id="Rectangle_3103" x="1604.9" y="90.2" class="st5" width="8.3" height="8.3"/>
	<rect id="Rectangle_3104" x="1604.9" y="116.3" class="st6" width="34.5" height="8.3"/>
	<rect id="Rectangle_3105" x="1604.9" y="116.3" class="st5" width="34.5" height="8.3"/>
	<rect id="Rectangle_3106" x="1576" y="49" class="st7" width="66" height="78"/>
	<path class="st8" d="M1609.5,120.5h-1.6v2.1h-1v-5.1h2.8v0.9h-1.8v1.3h1.6V120.5z"/>
	<path class="st8" d="M1611.9,122.6c0-0.1-0.1-0.2-0.1-0.3c-0.2,0.2-0.4,0.4-0.7,0.4c-0.3,0-0.6-0.1-0.8-0.3
		c-0.2-0.2-0.3-0.5-0.3-0.8c0-0.4,0.1-0.7,0.4-0.9s0.6-0.3,1.1-0.3h0.3V120c0-0.2,0-0.3-0.1-0.4c-0.1-0.1-0.1-0.1-0.3-0.1
		c-0.2,0-0.4,0.1-0.4,0.4h-1c0-0.3,0.1-0.6,0.4-0.9c0.3-0.2,0.6-0.3,1-0.3c0.4,0,0.7,0.1,1,0.3c0.2,0.2,0.3,0.5,0.3,0.9v1.8
		c0,0.3,0.1,0.6,0.1,0.8v0.1H1611.9z M1611.3,121.9c0.1,0,0.2,0,0.3-0.1c0.1,0,0.1-0.1,0.2-0.2v-0.8h-0.2c-0.2,0-0.3,0.1-0.4,0.2
		c-0.1,0.1-0.1,0.2-0.1,0.4C1611,121.8,1611.1,121.9,1611.3,121.9z"/>
	<path class="st8" d="M1614.6,117.9v0.9h0.5v0.7h-0.5v1.9c0,0.1,0,0.3,0.1,0.3c0,0.1,0.1,0.1,0.2,0.1c0.1,0,0.2,0,0.2,0l0,0.8
		c-0.2,0.1-0.3,0.1-0.5,0.1c-0.6,0-1-0.4-1-1.1v-2h-0.4v-0.7h0.4v-0.9H1614.6z"/>
	<path class="st8" d="M1618.4,120.9l0.3-2.1h0.9l-0.8,3.8h-0.8l-0.5-2.2l-0.5,2.2h-0.8l-0.8-3.8h0.9l0.3,2.1l0.5-2.1h0.7
		L1618.4,120.9z"/>
	<path class="st8" d="M1622,122.6c0-0.1-0.1-0.2-0.1-0.3c-0.2,0.2-0.4,0.4-0.7,0.4c-0.3,0-0.6-0.1-0.8-0.3c-0.2-0.2-0.3-0.5-0.3-0.8
		c0-0.4,0.1-0.7,0.4-0.9c0.3-0.2,0.6-0.3,1.1-0.3h0.3V120c0-0.2,0-0.3-0.1-0.4c-0.1-0.1-0.1-0.1-0.3-0.1c-0.2,0-0.4,0.1-0.4,0.4h-1
		c0-0.3,0.1-0.6,0.4-0.9c0.3-0.2,0.6-0.3,1-0.3c0.4,0,0.7,0.1,1,0.3c0.2,0.2,0.3,0.5,0.3,0.9v1.8c0,0.3,0.1,0.6,0.1,0.8v0.1H1622z
		 M1621.4,121.9c0.1,0,0.2,0,0.3-0.1c0.1,0,0.1-0.1,0.2-0.2v-0.8h-0.2c-0.2,0-0.3,0.1-0.4,0.2c-0.1,0.1-0.1,0.2-0.1,0.4
		C1621.1,121.8,1621.2,121.9,1621.4,121.9z"/>
	<path class="st8" d="M1625.3,122.6c0-0.1-0.1-0.2-0.1-0.3c-0.2,0.2-0.4,0.4-0.7,0.4c-0.3,0-0.6-0.1-0.8-0.3
		c-0.2-0.2-0.3-0.5-0.3-0.8c0-0.4,0.1-0.7,0.4-0.9c0.3-0.2,0.6-0.3,1.1-0.3h0.3V120c0-0.2,0-0.3-0.1-0.4c-0.1-0.1-0.1-0.1-0.3-0.1
		c-0.2,0-0.4,0.1-0.4,0.4h-1c0-0.3,0.1-0.6,0.4-0.9c0.3-0.2,0.6-0.3,1-0.3c0.4,0,0.7,0.1,1,0.3c0.2,0.2,0.3,0.5,0.3,0.9v1.8
		c0,0.3,0.1,0.6,0.1,0.8v0.1H1625.3z M1624.7,121.9c0.1,0,0.2,0,0.3-0.1c0.1,0,0.1-0.1,0.2-0.2v-0.8h-0.2c-0.2,0-0.3,0.1-0.4,0.2
		c-0.1,0.1-0.1,0.2-0.1,0.4C1624.4,121.8,1624.5,121.9,1624.7,121.9z"/>
	<path class="st8" d="M1627,122.1c0-0.2,0.1-0.3,0.2-0.4c0.1-0.1,0.2-0.2,0.4-0.2c0.2,0,0.3,0,0.4,0.2c0.1,0.1,0.2,0.2,0.2,0.4
		c0,0.2-0.1,0.3-0.2,0.4c-0.1,0.1-0.2,0.1-0.4,0.1c-0.2,0-0.3,0-0.4-0.1C1627,122.4,1627,122.3,1627,122.1z"/>
	<path class="st8" d="M1629.9,118.8l0,0.4c0.2-0.3,0.5-0.4,0.9-0.4c0.6,0,1,0.5,1,1.4v2.5h-1v-2.4c0-0.2,0-0.4-0.1-0.5
		c-0.1-0.1-0.2-0.1-0.3-0.1c-0.2,0-0.3,0.1-0.4,0.3v2.7h-1v-3.8H1629.9z"/>
	<path class="st8" d="M1634,122.7c-0.5,0-0.9-0.2-1.2-0.5s-0.4-0.7-0.4-1.3v-0.3c0-0.6,0.1-1.1,0.4-1.4c0.3-0.3,0.6-0.5,1.1-0.5
		c0.5,0,0.8,0.2,1.1,0.5c0.2,0.3,0.4,0.8,0.4,1.3v0.5h-2c0,0.3,0.1,0.5,0.2,0.6c0.1,0.1,0.3,0.2,0.5,0.2c0.3,0,0.6-0.1,0.8-0.3
		l0.4,0.6c-0.1,0.2-0.3,0.3-0.5,0.4C1634.5,122.6,1634.3,122.7,1634,122.7z M1633.4,120.4h1v-0.1c0-0.2,0-0.4-0.1-0.5
		c-0.1-0.1-0.2-0.2-0.4-0.2c-0.2,0-0.3,0.1-0.4,0.2C1633.4,119.9,1633.4,120.1,1633.4,120.4z"/>
	<path class="st8" d="M1637,117.9v0.9h0.5v0.7h-0.5v1.9c0,0.1,0,0.3,0.1,0.3c0,0.1,0.1,0.1,0.2,0.1c0.1,0,0.2,0,0.2,0l0,0.8
		c-0.2,0.1-0.3,0.1-0.5,0.1c-0.6,0-1-0.4-1-1.1v-2h-0.4v-0.7h0.4v-0.9H1637z"/>
</g>
</svg>
